<?xml version="1.0" encoding="utf-8"?>
<!-- Generator: Adobe Illustrator 17.0.0, SVG Export Plug-In . SVG Version: 6.00 Build 0)  -->
<!DOCTYPE svg PUBLIC "-//W3C//DTD SVG 1.1//EN" "http://www.w3.org/Graphics/SVG/1.1/DTD/svg11.dtd">
<svg version="1.1" id="Layer_1" xmlns="http://www.w3.org/2000/svg" xmlns:xlink="http://www.w3.org/1999/xlink" x="0px" y="0px"
	 width="21.977px" height="17.958px" viewBox="0 0 21.977 17.958" enable-background="new 0 0 21.977 17.958" xml:space="preserve">
<g transform="translate(0,-952.36218)">
	<path fill="#FFFFFF" d="M6.222,952.362c0.295-0.001,0.581,0.192,0.692,0.465c0.111,0.273,0.04,0.611-0.172,0.816l-4.206,4.206
		h13.201c3.442,0,6.24,2.798,6.24,6.24c0,3.442-2.798,6.232-6.24,6.232H1.643c-0.394,0.005-0.756-0.351-0.756-0.745
		c0-0.394,0.362-0.751,0.756-0.745h14.094c2.642,0,4.75-2.1,4.75-4.742s-2.108-4.75-4.75-4.75H2.536l4.206,4.206
		c0.276,0.276,0.276,0.779,0,1.055c-0.276,0.276-0.779,0.276-1.055,0l-5.479-5.479c-0.277-0.276-0.277-0.779,0-1.055l5.479-5.479
		C5.826,952.445,6.023,952.362,6.222,952.362L6.222,952.362z"/>
</g>
</svg>
